<svg id="Aavin_SVG_Logo-white" data-name="Aavin SVG Logo-white" xmlns="http://www.w3.org/2000/svg" width="132.135" height="148.59" viewBox="0 0 132.135 148.59">
  <g id="Layer_1" transform="translate(0.667 135.502)">
    <g id="Group_492" data-name="Group 492">
      <g id="Group_491" data-name="Group 491">
        <path id="Path_240" data-name="Path 240" d="M76.122,512.976c0-2.119,0-2.5-.029-2.931-.029-.464-.145-.7-.609-.784a2.994,2.994,0,0,0-.551-.029c-.145,0-.232-.029-.232-.116s.087-.116.319-.116c.726,0,1.6.029,2,.029.58,0,1.364-.029,2-.029a3.429,3.429,0,0,1,2.583.784,2.377,2.377,0,0,1,.7,1.654,3.278,3.278,0,0,1-3.425,3.366h-.29c-.058,0-.174-.029-.174-.116,0-.116.087-.145.377-.145a2.177,2.177,0,0,0,1.857-2.293,2.648,2.648,0,0,0-.813-2.09,2.051,2.051,0,0,0-1.393-.551,1.611,1.611,0,0,0-.551.058.28.28,0,0,0-.116.261v5.543c0,1.277,0,2.38.058,2.96.029.377.116.7.551.755a5.641,5.641,0,0,0,.7.058c.145,0,.232.029.232.116s-.116.145-.261.145c-.929,0-1.8-.029-2.148-.029-.319,0-1.19.029-1.741.029-.174,0-.29-.029-.29-.145,0-.058.058-.116.232-.116a2.086,2.086,0,0,0,.493-.058c.29-.058.348-.348.406-.755.058-.58.058-1.683.058-2.96v-2.5Z" transform="translate(-74.7 -508.884)" fill="#fff"/>
        <path id="Path_241" data-name="Path 241" d="M111.419,517.6v-2.5c-.029-.406-.145-.522-.522-.638a2.353,2.353,0,0,0-.493-.029c-.116,0-.2-.029-.2-.116s.087-.116.29-.116c.638,0,1.422.029,1.654.029.406,0,1.538-.029,1.886-.029a4.258,4.258,0,0,1,2.322.493,2.073,2.073,0,0,1,.871,1.625c0,.871-.493,1.654-1.683,2.612,1.074,1.335,1.944,2.409,2.67,3.134a2.458,2.458,0,0,0,1.306.784,1.085,1.085,0,0,0,.29.029.133.133,0,0,1,.145.116c0,.087-.087.116-.232.116h-1.161a2.613,2.613,0,0,1-1.335-.232,5.315,5.315,0,0,1-1.654-1.741c-.493-.638-.987-1.422-1.161-1.6a.329.329,0,0,0-.232-.087l-1.1-.029a.077.077,0,0,0-.087.087v.174c0,1.1,0,2,.058,2.5.029.348.087.58.464.609a4.29,4.29,0,0,0,.609.029.133.133,0,0,1,.145.116c0,.087-.087.116-.261.116-.7,0-1.712-.029-1.886-.029-.232,0-1.016.029-1.509.029-.145,0-.232-.029-.232-.116,0-.058.029-.116.2-.116a1.924,1.924,0,0,0,.435-.029c.261-.058.319-.29.348-.609.058-.493.058-1.422.058-2.5V517.6Zm1.567.929c0,.116.029.174.116.2a3.132,3.132,0,0,0,.929.116c.493,0,.638-.029.871-.2a1.987,1.987,0,0,0,.784-1.741,1.852,1.852,0,0,0-1.857-2.09,4.551,4.551,0,0,0-.726.029c-.087.029-.116.058-.116.174Z" transform="translate(-99.897 -512.575)" fill="#fff"/>
        <path id="Path_242" data-name="Path 242" d="M149.145,517.525v-2.5c-.029-.406-.145-.551-.406-.638a2.238,2.238,0,0,0-.435-.058c-.116,0-.2-.029-.2-.145,0-.058.087-.087.29-.087.464,0,1.277.029,1.625.029.319,0,1.1-.029,1.567-.029.145,0,.261.029.261.087,0,.116-.058.145-.2.145a1.414,1.414,0,0,0-.348.029c-.319.058-.435.232-.464.638-.029.377-.029.7-.029,2.5v2.09c0,1.132,0,2.09.058,2.583.029.319.116.493.493.551a4.282,4.282,0,0,0,.609.029c.145,0,.2.058.2.116,0,.087-.087.116-.232.116-.813,0-1.625-.029-1.973-.029-.29,0-1.1.029-1.6.029-.145,0-.232-.029-.232-.116,0-.058.029-.116.2-.116a1.919,1.919,0,0,0,.435-.029c.261-.058.319-.232.348-.58.058-.493.058-1.422.058-2.554v-2.061Z" transform="translate(-126.798 -512.504)" fill="#fff"/>
        <path id="Path_243" data-name="Path 243" d="M168.009,515.432c-.29-.638-.464-.755-.9-.871a3,3,0,0,0-.464-.029c-.116,0-.145-.058-.145-.116,0-.087.116-.116.319-.116.638,0,1.335.029,1.77.029.319,0,.929-.029,1.567-.029.145,0,.29.029.29.116s-.087.116-.2.116c-.2,0-.377,0-.464.087a.236.236,0,0,0-.116.232,3.638,3.638,0,0,0,.29.9l2.061,5.282h.029c.522-1.219,2.09-5.021,2.38-5.8a1.4,1.4,0,0,0,.116-.435.192.192,0,0,0-.174-.2,2.559,2.559,0,0,0-.493-.058c-.116,0-.2-.029-.2-.116s.116-.116.348-.116c.609,0,1.161.029,1.306.029.2,0,.784-.029,1.161-.029.145,0,.261.029.261.116s-.058.116-.2.116a1.132,1.132,0,0,0-.609.145,2.346,2.346,0,0,0-.638,1.045c-.493,1.1-.813,1.741-1.48,3.192-.784,1.712-1.335,3.018-1.625,3.6-.319.667-.406.871-.58.871s-.261-.145-.493-.7Z" transform="translate(-139.858 -512.646)" fill="#fff"/>
        <path id="Path_244" data-name="Path 244" d="M201.608,519.44c-.058,0-.087,0-.116.087l-.638,1.567a2.3,2.3,0,0,0-.174.726c0,.2.116.319.493.319h.174c.145,0,.174.058.174.116,0,.087-.058.116-.2.116-.406,0-.958-.029-1.364-.029-.116,0-.784.029-1.422.029-.145,0-.232-.029-.232-.116,0-.058.029-.116.145-.116h.348c.551-.087.755-.435,1.016-1.045l3.192-7.43c.145-.319.232-.464.348-.464.174,0,.232.116.348.377.29.639,2.322,5.485,3.105,7.255.464,1.074.813,1.219,1.045,1.248a2.659,2.659,0,0,0,.464.029c.116,0,.174.029.174.116s-.058.116-.522.116c-.435,0-1.306,0-2.351-.029-.232,0-.348,0-.348-.087,0-.058.029-.116.145-.116.087,0,.174-.116.116-.261l-.929-2.322c-.029-.058-.058-.087-.116-.087Zm2.612-.667c.058,0,.058-.029.058-.058l-1.161-2.989c0-.029-.029-.116-.058-.116s-.058.058-.058.116l-1.19,2.989c-.029.058,0,.087.029.087h2.38Z" transform="translate(-162.429 -511.865)" fill="#fff"/>
        <path id="Path_245" data-name="Path 245" d="M236.583,514.429l-1.828.029c-.7,0-.987.087-1.19.348a1.708,1.708,0,0,0-.2.406c-.029.087-.058.145-.145.145s-.116-.058-.116-.2a14.037,14.037,0,0,1,.261-1.422c.029-.145.058-.232.145-.232s.232.087.522.145c.348.029.813.058,1.219.058h4.963a5.676,5.676,0,0,0,.842-.058c.2-.029.29-.058.319-.058.087,0,.087.058.087.261,0,.261-.029,1.132-.029,1.422,0,.116-.029.2-.116.2s-.116-.058-.145-.232v-.116c-.029-.319-.348-.667-1.451-.667l-1.538-.029v4.76c0,1.074,0,2,.058,2.525.029.319.116.551.464.609a4.282,4.282,0,0,0,.609.029c.145,0,.2.058.2.116,0,.087-.087.116-.232.116-.813,0-1.625-.029-1.973-.029-.29,0-1.1.029-1.6.029-.145,0-.232-.029-.232-.116,0-.058.029-.116.2-.116a1.92,1.92,0,0,0,.435-.029c.261-.058.319-.29.348-.609.058-.493.058-1.422.058-2.5v-4.789Z" transform="translate(-187.13 -512.078)" fill="#fff"/>
        <path id="Path_246" data-name="Path 246" d="M271.219,517.383v-2.5c-.029-.406-.145-.522-.522-.638a2.357,2.357,0,0,0-.493-.029c-.116,0-.2-.029-.2-.116s.087-.116.29-.116c.638,0,1.422.029,1.77.029H275.4c.232,0,.406-.058.522-.058.058,0,.145-.058.2-.058s.087.058.087.116a7.438,7.438,0,0,0-.087.755,7.671,7.671,0,0,1-.058.784c0,.058-.029.2-.145.2-.087,0-.087-.058-.087-.145a.888.888,0,0,0-.087-.435c-.087-.2-.2-.377-.813-.435-.2-.029-1.654-.058-1.915-.058-.058,0-.087.029-.087.116v2.9c0,.058,0,.116.087.116.29,0,1.857,0,2.148-.029a.916.916,0,0,0,.58-.174c.087-.087.145-.145.2-.145s.087.058.087.116-.029.261-.087.871c-.029.232-.058.7-.058.784s0,.261-.116.261c-.087,0-.116-.029-.116-.087a2.346,2.346,0,0,0-.029-.435c-.058-.232-.232-.406-.668-.464-.232-.029-1.6-.058-1.915-.058-.058,0-.058.058-.058.116v2.67c.029.813.406.987,1.654.987a3.2,3.2,0,0,0,1.161-.145c.319-.145.435-.377.522-.871.029-.116.058-.174.145-.174s.116.145.116.29a6.437,6.437,0,0,1-.174,1.306c-.087.319-.2.319-.638.319-.929,0-1.654,0-2.235-.029-.61,0-1.045-.029-1.422-.029h-.7c-.29,0-.609.029-.842.029-.145,0-.232-.029-.232-.116,0-.058.029-.116.2-.116a1.924,1.924,0,0,0,.435-.029c.261-.058.319-.29.348-.609.058-.493.058-1.422.058-2.5v-2.177Z" transform="translate(-213.321 -512.362)" fill="#fff"/>
        <path id="Path_247" data-name="Path 247" d="M322.522,512.692c0-2.119,0-2.5-.029-2.931-.029-.464-.145-.7-.609-.784a2.994,2.994,0,0,0-.551-.029c-.145,0-.232-.029-.232-.116s.087-.116.319-.116h1.132c.348,0,.667.029.871.029h3.454a5.991,5.991,0,0,0,.609-.087c.058,0,.145-.058.232-.058s.087.058.087.116c0,.087-.058.261-.116.9,0,.145-.029.755-.058.929a.135.135,0,0,1-.145.145c-.087,0-.116-.058-.116-.2a1.172,1.172,0,0,0-.087-.493c-.087-.261-.232-.406-.929-.493-.232-.029-1.683-.058-1.973-.058-.058,0-.087.029-.087.145V513.1c0,.087,0,.145.087.145.319,0,1.886,0,2.206-.029s.551-.058.667-.2c.087-.116.145-.174.232-.174.058,0,.087.029.087.116s-.058.319-.116,1.016c0,.29-.058.842-.058.929,0,.116,0,.261-.116.261a.106.106,0,0,1-.116-.116,1.52,1.52,0,0,0-.058-.493c-.058-.29-.261-.493-.784-.551-.261-.029-1.625-.029-1.973-.029-.058,0-.087.058-.087.145v3.25c.029.958.261,1.161,1.654,1.161a3.457,3.457,0,0,0,1.306-.174c.377-.174.522-.464.609-1.016.029-.145.058-.2.145-.2.116,0,.116.116.116.261a13.119,13.119,0,0,1-.174,1.538c-.087.348-.232.348-.755.348-1.045,0-1.8-.029-2.409-.029-.609-.029-1.016-.029-1.451-.029h-.784c-.319,0-.667.029-.958.029-.174,0-.29-.029-.29-.145,0-.058.058-.116.232-.116a2.089,2.089,0,0,0,.493-.058c.29-.058.348-.348.406-.755.058-.58.058-1.683.058-2.96v-2.525Z" transform="translate(-249.591 -508.6)" fill="#fff"/>
        <path id="Path_248" data-name="Path 248" d="M362.007,522.539a6.185,6.185,0,0,1-1.915.29,4.614,4.614,0,0,1-4.992-4.672,4.7,4.7,0,0,1,5.05-4.556c2.931,0,4.992,1.712,4.992,4.469a4.722,4.722,0,0,1-2.09,3.86l2.409,1.161a11.237,11.237,0,0,0,4.992,1.393,6.839,6.839,0,0,0,2.38-.377.412.412,0,0,1,.174-.058.125.125,0,0,1,.116.116c0,.058-.058.116-.145.145a9.152,9.152,0,0,1-3.918.929,9.01,9.01,0,0,1-5.166-1.6Zm1.335-4.15c0-2.815-1.77-4.15-3.454-4.15-1.6,0-2.96.958-2.96,3.657,0,2.815,1.683,4.324,3.657,4.324C361.572,522.19,363.342,521.813,363.342,518.389Z" transform="translate(-273.724 -512.149)" fill="#fff"/>
        <path id="Path_249" data-name="Path 249" d="M398.99,517.525v-2.5c-.029-.406-.145-.522-.522-.638a2.2,2.2,0,0,0-.464-.029c-.145,0-.2-.029-.2-.116s.087-.116.261-.116c.638,0,1.48.029,1.828.029.319,0,1.132-.029,1.567-.029.174,0,.261.029.261.116s-.058.116-.2.116a1.411,1.411,0,0,0-.348.029c-.319.058-.406.232-.435.638-.029.377-.029.7-.029,2.5v1.654c0,1.712.319,2.38.929,2.844a2.333,2.333,0,0,0,1.538.464,2.2,2.2,0,0,0,1.625-.639c.667-.638.7-1.654.7-2.873V517.5c0-1.8,0-2.119-.029-2.5-.029-.406-.116-.522-.522-.638a2.058,2.058,0,0,0-.435-.029c-.145,0-.2-.029-.2-.116s.087-.116.261-.116c.638,0,1.451.029,1.451.029.145,0,.958-.029,1.422-.029.174,0,.261.029.261.116s-.058.116-.2.116a1.414,1.414,0,0,0-.348.029c-.319.058-.406.232-.435.638,0,.377-.029.7-.029,2.5v1.248a4.376,4.376,0,0,1-1.161,3.541,3.81,3.81,0,0,1-2.583.842,4.2,4.2,0,0,1-2.786-.813,3.844,3.844,0,0,1-1.1-3.105v-1.683Z" transform="translate(-304.031 -512.504)" fill="#fff"/>
        <path id="Path_250" data-name="Path 250" d="M440.945,517.525v-2.5c-.029-.406-.145-.551-.406-.638a2.238,2.238,0,0,0-.435-.058c-.116,0-.2-.029-.2-.145,0-.058.087-.087.29-.087.464,0,1.277.029,1.625.029.319,0,1.1-.029,1.567-.029.145,0,.261.029.261.087,0,.116-.058.145-.2.145a1.415,1.415,0,0,0-.348.029c-.319.058-.435.232-.464.638-.029.377-.029.7-.029,2.5v2.09c0,1.132,0,2.09.058,2.583.029.319.116.493.493.551a4.489,4.489,0,0,0,.639.029c.145,0,.2.058.2.116,0,.087-.087.116-.232.116-.813,0-1.625-.029-1.973-.029-.29,0-1.1.029-1.6.029-.145,0-.232-.029-.232-.116,0-.058.029-.116.2-.116a1.92,1.92,0,0,0,.435-.029c.261-.058.319-.232.348-.58.058-.493.058-1.422.058-2.554v-2.061Z" transform="translate(-333.913 -512.504)" fill="#fff"/>
        <path id="Path_251" data-name="Path 251" d="M464.583,514.429l-1.828.029c-.7,0-.987.087-1.19.348a1.706,1.706,0,0,0-.2.406c-.029.087-.058.145-.145.145s-.116-.058-.116-.2a14.028,14.028,0,0,1,.261-1.422c.029-.145.058-.232.145-.232s.232.087.522.145c.348.029.813.058,1.219.058h4.963a5.676,5.676,0,0,0,.842-.058c.2-.029.29-.058.319-.058.087,0,.087.058.087.261,0,.261-.029,1.132-.029,1.422,0,.116-.029.2-.116.2s-.116-.058-.145-.232v-.116c-.029-.319-.348-.667-1.451-.667l-1.538-.029v4.76c0,1.074,0,2,.058,2.525.029.319.116.551.464.609a4.489,4.489,0,0,0,.638.029c.145,0,.2.058.2.116,0,.087-.087.116-.232.116-.813,0-1.625-.029-1.974-.029-.29,0-1.1.029-1.6.029-.145,0-.232-.029-.232-.116,0-.058.029-.116.2-.116a1.92,1.92,0,0,0,.435-.029c.261-.058.319-.29.348-.609.058-.493.058-1.422.058-2.5v-4.789Z" transform="translate(-348.961 -512.078)" fill="#fff"/>
        <path id="Path_252" data-name="Path 252" d="M497.347,519.991a2.324,2.324,0,0,0-.29-1.248c-.087-.174-1.741-2.786-2.177-3.4a3.21,3.21,0,0,0-.784-.841,1.086,1.086,0,0,0-.522-.145c-.087,0-.174-.029-.174-.116s.087-.116.232-.116c.2,0,1.132.029,1.538.029.261,0,.842-.029,1.393-.029.116,0,.174.029.174.116s-.087.087-.29.145c-.087.029-.174.087-.174.174a1.145,1.145,0,0,0,.145.406c.232.348,1.828,3.134,2.032,3.454.145-.29,1.625-2.815,1.828-3.163a1.628,1.628,0,0,0,.174-.638c0-.116-.058-.232-.261-.261-.116-.029-.232-.029-.232-.145,0-.087.058-.116.2-.116.406,0,.842.029,1.19.029.261,0,1.074-.029,1.306-.029.145,0,.232.029.232.087,0,.087-.087.145-.232.145a1.429,1.429,0,0,0-.522.145,1.552,1.552,0,0,0-.638.551,40.766,40.766,0,0,0-2.38,3.773,2.857,2.857,0,0,0-.145,1.19v.929c0,.2,0,.668.029,1.19.029.348.145.58.493.609a4.291,4.291,0,0,0,.609.029c.145,0,.2.058.2.116,0,.087-.087.116-.261.116-.755,0-1.567-.029-1.915-.029-.319,0-1.132.029-1.567.029-.174,0-.261-.029-.261-.116,0-.058.058-.116.2-.116a1.923,1.923,0,0,0,.435-.029c.261-.058.348-.29.377-.609.029-.493.029-.987.029-1.19v-.929Z" transform="translate(-371.887 -512.504)" fill="#fff"/>
      </g>
    </g>
  </g>
  <g id="Line" transform="translate(0 130.191)">
    <rect id="Rectangle_264" data-name="Rectangle 264" width="132.135" height="0.58" fill="#fff"/>
  </g>
  <g id="Aavin_Text" transform="translate(1.19 97.164)">
    <g id="Group_493" data-name="Group 493">
      <path id="Path_253" data-name="Path 253" d="M86.019,394.813c-.174,0-.261.058-.319.29l-1.915,5.079a7.068,7.068,0,0,0-.522,2.177c0,.638.319,1.1,1.422,1.1h.522c.435,0,.522.058.522.29,0,.29-.2.348-.609.348-1.132,0-2.67-.116-3.773-.116-.377,0-2.351.116-4.179.116-.464,0-.668-.058-.668-.348,0-.2.145-.29.435-.29.319,0,.813-.029,1.1-.058,1.625-.2,2.322-1.422,3.018-3.192l8.91-22.289c.435-1.016.638-1.422.987-1.422.319,0,.522.319.9,1.132.842,1.944,6.53,16.455,8.794,21.824,1.335,3.192,2.38,3.686,3.134,3.86a7.066,7.066,0,0,0,1.48.145c.29,0,.464.029.464.29,0,.29-.319.348-1.625.348-1.277,0-3.86,0-6.7-.058-.638-.029-1.074-.029-1.074-.29,0-.2.145-.29.493-.319a.562.562,0,0,0,.319-.813L94.29,395.1a.341.341,0,0,0-.348-.261H86.019Zm7.226-1.8c.174,0,.2-.116.174-.2l-3.192-8.764c-.029-.145-.058-.319-.174-.319s-.174.174-.2.319l-3.279,8.736c-.029.145,0,.261.145.261h6.53Z" transform="translate(-76.5 -376.5)" fill="#fff"/>
      <path id="Path_254" data-name="Path 254" d="M192.319,394.813c-.174,0-.261.058-.319.29l-1.915,5.079a7.068,7.068,0,0,0-.522,2.177c0,.638.319,1.1,1.422,1.1h.522c.435,0,.522.058.522.29,0,.29-.2.348-.609.348-1.132,0-2.67-.116-3.773-.116-.377,0-2.351.116-4.179.116-.464,0-.667-.058-.667-.348,0-.2.145-.29.435-.29.319,0,.813-.029,1.1-.058,1.625-.2,2.322-1.422,3.018-3.192l8.91-22.289c.435-1.016.638-1.422.987-1.422.319,0,.522.319.9,1.132.842,1.944,6.53,16.455,8.794,21.824,1.364,3.192,2.38,3.686,3.134,3.86a7.065,7.065,0,0,0,1.48.145c.29,0,.464.029.464.29,0,.29-.319.348-1.625.348-1.277,0-3.86,0-6.7-.058-.638-.029-1.074-.029-1.074-.29,0-.2.145-.29.493-.319a.562.562,0,0,0,.319-.813L200.59,395.1a.341.341,0,0,0-.348-.261h-7.923Zm7.226-1.8c.174,0,.2-.116.174-.2l-3.192-8.764c-.029-.145-.058-.319-.174-.319s-.174.174-.2.319l-3.279,8.736c-.029.145,0,.261.145.261h6.53Z" transform="translate(-151.95 -376.5)" fill="#fff"/>
      <path id="Path_255" data-name="Path 255" d="M267.727,382.483c-.813-1.944-1.422-2.351-2.7-2.7a5.367,5.367,0,0,0-1.393-.145c-.319,0-.435-.116-.435-.319,0-.29.377-.319.929-.319,1.886,0,3.918.116,5.137.116.9,0,2.583-.116,4.353-.116.435,0,.813.058.813.319s-.2.319-.522.319a2.392,2.392,0,0,0-1.393.261.828.828,0,0,0-.348.755,10.608,10.608,0,0,0,.813,2.728l6.095,16.107h.145c1.538-3.918,6.153-15.352,6.994-17.674a4.453,4.453,0,0,0,.319-1.306.654.654,0,0,0-.464-.667,4.663,4.663,0,0,0-1.422-.174c-.319,0-.609-.029-.609-.29,0-.29.319-.348.987-.348,1.77,0,3.279.116,3.715.116.609,0,2.264-.116,3.337-.116.464,0,.755.058.755.319s-.2.319-.58.319a2.994,2.994,0,0,0-1.741.435c-.464.319-.987.929-1.944,3.192-1.393,3.337-2.351,5.253-4.266,9.635-2.264,5.195-3.947,9.055-4.731,10.825-.929,2.061-1.132,2.641-1.625,2.641-.464,0-.667-.493-1.335-2.177Z" transform="translate(-209.017 -378.274)" fill="#fff"/>
      <path id="Path_256" data-name="Path 256" d="M375.634,389.3c0-5.4,0-6.385-.058-7.517-.058-1.219-.435-1.8-1.219-2a4.537,4.537,0,0,0-1.277-.145c-.348,0-.58-.058-.58-.348,0-.2.29-.29.842-.29,1.335,0,3.6.116,4.614.116.9,0,2.989-.116,4.324-.116.464,0,.755.058.755.29,0,.29-.2.348-.58.348a5.03,5.03,0,0,0-1.074.116c-.958.174-1.248.784-1.306,2.032-.058,1.132-.058,2.119-.058,7.517v6.24c0,3.453,0,6.24.145,7.778.116.958.348,1.6,1.422,1.741.493.058,1.277.145,1.8.145.377,0,.58.116.58.29,0,.261-.29.348-.668.348-2.351,0-4.585-.116-5.543-.116-.813,0-3.047.116-4.469.116q-.7,0-.7-.348c0-.174.145-.29.58-.29a4.99,4.99,0,0,0,1.277-.145c.7-.145.929-.755,1.016-1.77.174-1.48.174-4.3.174-7.749V389.3Z" transform="translate(-286.596 -378.274)" fill="#fff"/>
      <path id="Path_257" data-name="Path 257" d="M426.823,399.608c.058,2.757.522,3.686,1.248,3.947a5.982,5.982,0,0,0,1.857.261c.377,0,.609.058.609.29,0,.29-.319.348-.813.348-2.322,0-3.715-.116-4.411-.116-.319,0-2,.116-3.831.116-.464,0-.784-.029-.784-.348,0-.2.2-.29.58-.29a6.114,6.114,0,0,0,1.6-.174c.929-.29,1.074-1.306,1.1-4.411l.319-21.012c0-.7.116-1.219.464-1.219.377,0,.7.464,1.306,1.1.435.464,5.833,6.24,11,11.405,2.409,2.409,7.2,7.517,7.807,8.1h.174l-.348-15.933c-.029-2.177-.348-2.844-1.219-3.192a6.068,6.068,0,0,0-1.886-.2c-.435,0-.58-.116-.58-.319,0-.29.377-.319.929-.319,1.857,0,3.541.116,4.3.116.377,0,1.741-.116,3.483-.116.464,0,.813.029.813.319,0,.2-.2.319-.638.319a3.669,3.669,0,0,0-1.074.116c-.987.29-1.277,1.016-1.306,3.018l-.377,22.4c0,.784-.145,1.1-.464,1.1-.377,0-.813-.377-1.219-.784-2.235-2.119-6.791-6.791-10.477-10.448-3.86-3.831-7.807-8.271-8.445-8.939h-.116Z" transform="translate(-320.808 -376.855)" fill="#fff"/>
    </g>
  </g>
  <g id="Light_Blue" transform="translate(19.473 12.595)">
    <path id="Path_258" data-name="Path 258" d="M152.124,153.243H139.5L178.853,85.1l24.581,42.633-16.949-.029,3.163-1.828L178.8,107.1Z" transform="translate(-139.5 -85.1)" fill="#4dbfee"/>
  </g>
  <g id="Dark_Blue" transform="translate(34.071 38.454)">
    <path id="Path_259" data-name="Path 259" d="M262.18,205.543l6.182,10.941H189.8L214.41,174.2l8.474,14.685-3.163-1.828-10.854,18.458Z" transform="translate(-189.8 -174.2)" fill="#144372"/>
  </g>
  <g id="Blue" transform="translate(56.592 0)">
    <path id="Path_260" data-name="Path 260" d="M270.621,52.5l6.385-10.8,39.324,68.027H267.4l8.5-14.685v3.628h21.389Z" transform="translate(-267.4 -41.7)" fill="#1268b3"/>
  </g>
</svg>
